<?xml version="1.0" encoding="utf-8"?>
<!-- Generator: Adobe Illustrator 21.1.0, SVG Export Plug-In . SVG Version: 6.00 Build 0)  -->
<svg version="1.1" id="diagram" xmlns="http://www.w3.org/2000/svg" xmlns:xlink="http://www.w3.org/1999/xlink" x="0px" y="0px"
	 viewBox="0 0 425 385.9" style="enable-background:new 0 0 425 385.9;" xml:space="preserve">
<style type="text/css">
	.st0{fill:#FAE8C7;}
	.st1{fill:#F8F8FF;}
	.st2{fill:#E0333C;}
	.st3{display:none;fill:#E0333C;}
	.st4{display:none;}
	.st5{display:inline;fill:none;}
	.st6{display:inline;fill:#E29F7D;}
	.st7{display:inline;fill:#4C4B4D;}
	.st8{display:inline;fill:#EEEDED;}
	.st9{display:inline;fill:#C98567;}
	.st10{display:inline;fill:#363536;}
	.st11{display:inline;fill:#ED6E60;}
	.st12{display:inline;fill:#353534;}
	.st13{display:inline;fill:#E0333C;}
	.st14{fill:#FAE8C8;stroke:#E0333C;stroke-miterlimit:10;}
	.st15{display:inline;fill:#414042;}
	.st16{display:inline;fill:#4A403C;}
</style>
<g id="intestines">
	<g>
		<g>
			<path class="st0" d="M187.7,235.2c0.6-3.1,3.1-5.7,5.6-7.3c0.4-0.3,0-0.9-0.4-0.7c-2.7,1.8-5.3,4.5-5.9,7.8
				C186.8,235.4,187.6,235.6,187.7,235.2L187.7,235.2z"/>
		</g>
		<g>
			<path class="st0" d="M178.3,227.2c1.3-3.9,6-5.7,9.6-6.3c0.5-0.1,0.3-0.8-0.2-0.7c-3.9,0.6-8.7,2.7-10.1,6.8
				C177.4,227.5,178.1,227.7,178.3,227.2L178.3,227.2z"/>
		</g>
		<g>
			<path class="st0" d="M173.1,214c2.7-3.2,7.8-3,11.4-2.2c0.5,0.1,0.7-0.6,0.2-0.7c-3.9-0.9-9.3-1-12.1,2.4
				C172.2,213.8,172.8,214.4,173.1,214L173.1,214z"/>
		</g>
		<g>
			<path class="st0" d="M172.1,203.8c3.4-1.6,7.4-1.4,10.6,0.6c0.4,0.3,0.8-0.4,0.4-0.7c-3.4-2.2-7.7-2.3-11.3-0.6
				C171.3,203.4,171.7,204,172.1,203.8L172.1,203.8z"/>
		</g>
		<g>
			<path class="st0" d="M173,195.4c2.7-1.2,6-0.5,8.2,1.5c0.4,0.3,0.9-0.2,0.5-0.5c-2.4-2.3-6-3-9.1-1.7
				C172.2,194.9,172.6,195.5,173,195.4L173,195.4z"/>
		</g>
		<g>
			<path class="st0" d="M174.5,183.2c3.7-0.3,6.7,2.8,8,6c0.2,0.4,0.9,0.2,0.7-0.2c-1.4-3.5-4.6-6.9-8.7-6.5
				C174,182.5,174,183.3,174.5,183.2L174.5,183.2z"/>
		</g>
		<g>
			<path class="st0" d="M188.8,179.3c2.2,2.4,2.4,6.8,2.4,9.8c0,0.5,0.8,0.5,0.8,0c0-3.3-0.3-7.7-2.6-10.3
				C189,178.4,188.5,178.9,188.8,179.3L188.8,179.3z"/>
		</g>
		<g>
			<path class="st0" d="M200.2,183.9c2.8,1.7,2.2,6.7,1.7,9.2c-0.1,0.5,0.6,0.7,0.7,0.2c0.5-2.9,1-8.2-2.1-10.1
				C200.1,183,199.8,183.6,200.2,183.9L200.2,183.9z"/>
		</g>
		<g>
			<path class="st0" d="M209.3,184.3c1.5,3,1.3,6.6,0,9.6c-0.2,0.4,0.5,0.8,0.7,0.4c1.4-3.2,1.7-7.1,0-10.3
				C209.7,183.4,209.1,183.8,209.3,184.3L209.3,184.3z"/>
		</g>
		<g>
			<path class="st0" d="M216.4,182.2c3,2,3.1,6.2,2.3,9.3c-0.1,0.5,0.6,0.7,0.7,0.2c0.9-3.5,0.6-8-2.7-10.2
				C216.4,181.2,216,181.9,216.4,182.2L216.4,182.2z"/>
		</g>
		<g>
			<path class="st0" d="M224.4,177.6c3.8,0.7,5.2,5.1,5.4,8.4c0,0.5,0.8,0.5,0.8,0c-0.2-3.6-1.8-8.4-5.9-9.1
				C224.1,176.8,223.9,177.5,224.4,177.6L224.4,177.6z"/>
		</g>
		<g>
			<path class="st0" d="M238.9,183.9c-1.4,2.4-4.6,3.9-7,4.8c-0.5,0.2-0.3,0.9,0.2,0.7c2.6-1,6-2.5,7.5-5.2
				C239.8,183.8,239.1,183.4,238.9,183.9L238.9,183.9z"/>
		</g>
		<g>
			<path class="st0" d="M231.5,195.8c3.3,2.1,7.7,1.7,11,0c0.4-0.2,0.1-0.9-0.4-0.7c-3.2,1.6-7.2,2-10.3,0
				C231.4,194.9,231.1,195.6,231.5,195.8L231.5,195.8z"/>
		</g>
		<g>
			<path class="st0" d="M230.5,202.5c2.2,3.3,6.4,4.5,10.2,4c0.5-0.1,0.5-0.8,0-0.8c-3.5,0.4-7.5-0.6-9.5-3.7
				C230.9,201.7,230.3,202.1,230.5,202.5L230.5,202.5z"/>
		</g>
		<g>
			<path class="st0" d="M230.5,210.2c1.3,3.1,4.1,6,7.6,5.9c0.5,0,0.5-0.8,0-0.8c-3.2,0-5.8-2.7-6.9-5.4
				C231,209.6,230.3,209.8,230.5,210.2L230.5,210.2z"/>
		</g>
		<g>
			<path class="st0" d="M229.2,217.1c0.8,3.5,3.6,6.5,7.2,7.2c0.5,0.1,0.7-0.6,0.2-0.7c-3.3-0.6-5.9-3.4-6.7-6.6
				C229.8,216.4,229.1,216.6,229.2,217.1L229.2,217.1z"/>
		</g>
		<g>
			<path class="st0" d="M224.1,222c-1,3.8,0.9,7.6,4.1,9.6c0.4,0.3,0.8-0.4,0.4-0.7c-2.9-1.9-4.7-5.3-3.8-8.8
				C225,221.7,224.3,221.5,224.1,222L224.1,222z"/>
		</g>
		<g>
			<path class="st0" d="M218.8,224.7c-2.4,2.9-0.8,7.6,0.6,10.5c0.2,0.4,0.9,0.1,0.7-0.4c-1.2-2.5-2.9-7-0.8-9.6
				C219.7,224.9,219.1,224.4,218.8,224.7L218.8,224.7z"/>
		</g>
		<g>
			<path class="st0" d="M212.3,229.7c-2.5,1.7-1.3,5.4-0.1,7.5c0.2,0.4,0.9,0,0.7-0.4c-0.9-1.7-2.2-5-0.1-6.4
				C213,230.1,212.7,229.4,212.3,229.7L212.3,229.7z"/>
		</g>
	</g>
	<circle class="st1" cx="206" cy="204.1" r="56.1"/>
	<path class="st2" d="M198.9,241.1c0,0-1.6-2.3-3.3-1s-8.1,5.4-8.7-4c0,0-5.6,2.4-5.7-2.9c0,0-5.6,0.7-4.6-5.4c0,0-5.3-2.7-2.4-6.5
		c0,0-5.5-3.1-2.2-7.3c0,0-5-4.4-1.1-8.7c0,0-4-6.1,0.7-9.4c0,0-6-6.5-0.3-10.4c0,0,0.6-9.9,8-7.8c0,0,4.6-5.5,10.6,0.4
		c0,0,7.2-3.3,9.7,4.4c0,0,5.1-4.5,9.5,0.5c0,0,2.7-4.2,6.9-2.6c0,0,2.4-6.6,8.1-4.1c0,0,6.4-4.1,9.9,1.2c0,0,7-1.1,6.9,6.1
		c0,0,6.5,2.5,2.3,10.3c0,0,4.1,5.2-0.8,11.2c0,0,3.4,4.9-2.9,11.2c0,0,2.9,3.6-1.2,8.3c0,0,1.3,6.1-7.3,8.9c0,0-0.2,3.5-10.4,3.4
		c0,0-2.8,1.9-7.4,1.2c0,0-4.3,2.9-4.1,10.2c0,0-2.6-1.2-5.7,0c0,0-2.8-11.6-0.7-16s10.3-3.2,10.3-3.2s0.7-4.6,6.3-5
		c0,0,1.7-3.4,5.3-3c0,0,0.8-5.1,4.5-5.1c0,0-1.7-5.7,1.1-6.7c0,0-2.3-6,0.3-7.8c0,0-0.9-5.8,1.3-7.1c0,0-2.7-4.8-0.7-6.2
		c0,0-3.4,2.3-6.3,1.4c0,0-1.9,5.8-7.4,5.4c0,0-3.7,2.9-7.8,1.7c0,0-3.2,2.3-8.8-1.8c0,0-6.6,1.4-7.8-3.1c0,0-5.6,1.1-7.3-2.1
		c0,0,2.5,5.5-1.6,8.8c0,0,2.3,4.9,1,7.6c0,0,3.7,2.2,1.6,7.1c0,0,4.1,2.7,2.2,7.7c0,0,4.6,1.9,4.4,7c0,0,5,1.7,4.8,5.9
		C197.7,237.7,199.4,238.7,198.9,241.1z"/>
</g>
<g id="eyes">
	<circle class="st1" cx="283.2" cy="308.5" r="56.1"/>
	<path class="st2" d="M269.3,329.3c-6.2-4.5-10.2-11.8-10.2-20c0-8,3.8-15.1,9.7-19.6c-10,3.4-17.6,9.8-22.7,15.3
		c0.2,2.1,0.6,4.4,1.2,6.1c1,3.2,0.9,6.4,0.4,8.9C253,323.4,260.3,327.2,269.3,329.3z"/>
	<path class="st2" d="M328.4,309.7c-1.1-1.7-4.3-6.3-10-10.9c-4.5-3.6-11.3-7.7-20.6-9.9c6.5,4.5,10.8,11.9,10.8,20.4
		c0,7.9-3.7,14.9-9.5,19.5C315.9,323.9,326.1,312.5,328.4,309.7z"/>
	<path class="st2" d="M245.4,318.4c0.2-2,0.2-4.3-0.5-6.6c-0.4-1.3-0.7-2.9-1-4.4c-2.3,2.7-3.9,5-4.6,6.2
		C240.3,314.4,242.4,316.3,245.4,318.4z"/>
	<path class="st2" d="M306.1,309.3c0-12.3-10-22.3-22.3-22.3s-22.3,10-22.3,22.3s10,22.3,22.3,22.3S306.1,321.5,306.1,309.3z
		 M283.8,298.5c1.6,0,3.2,0.4,4.6,1c-1.8,0.5-3,2.1-3,4.1c0,2.3,1.9,4.3,4.3,4.3c1.9,0,3.5-1.2,4-3c0.6,1.3,0.9,2.8,0.9,4.3
		c0,5.9-4.8,10.7-10.7,10.7c-0.5,0-0.9,0-1.4-0.1c0.9-1,1.5-2.4,1.5-3.9c0-3.2-2.6-5.7-5.7-5.7c-1.9,0-3.5,0.9-4.6,2.3
		c-0.3-1-0.5-2.1-0.5-3.3C273.1,303.4,277.9,298.5,283.8,298.5z"/>
	<path class="st3" d="M278.2,310.3c3.2,0,5.7,2.6,5.7,5.7c0,1.5-0.6,2.8-1.5,3.9c0.5,0.1,0.9,0.1,1.4,0.1c5.9,0,10.7-4.8,10.7-10.7
		c0-1.5-0.3-3-0.9-4.3c-0.6,1.7-2.1,3-4,3c-2.3,0-4.3-1.9-4.3-4.3c0-1.9,1.3-3.5,3-4.1c-1.4-0.7-2.9-1-4.6-1
		c-5.9,0-10.7,4.8-10.7,10.7c0,1.2,0.2,2.3,0.5,3.3C274.7,311.2,276.3,310.3,278.2,310.3z"/>
</g>
<g id="pancreas">
	<circle class="st1" cx="140.7" cy="312.6" r="56.1"/>
	<path class="st2" d="M179,293c0,0-1.9-2.4-5.2,0c0,0-2.3-2.3-5.9,0c0,0-3.6-1.5-5,1c0,0-3.9-2.3-5.4,1.2c0,0-3.6-2.3-5.6,0.8
		c0,0-3.9-2.7-6.8,0c0,0-5.8-1.7-8.3,1.8c0,0-2.4-2.3-6,0c0,0-6.1-1.5-8.7,0.9c0,0-4.9-0.9-7.8,1.4c0,0-4.2,0.4-6.1,3.9
		c0,0-4.4,2.3-4.2,6.3c0,0-5.2,3.9-2.3,9.9c0,0-1.7,4,0.4,8.3c0,0,1.2,5.4,5.3,5.6c0,0,2.9,4,7.9,3.7c0,0,6.4,2.7,10,0
		c0,0,3.9-1.4,5.9-4.3c0,0,3-3,0.8-7c0,0,0.3-3.7-2.5-4.2c0,0,4.7-0.2,6-2c0,0,5.6,0.1,7.7-2.5c0,0,5.5-0.6,7.5-3.5
		c0,0,5.4-0.8,8.2-3.7c0,0,3.9-0.9,6.8-2.2c0,0,5-0.2,6.2-2.4c0,0,4.3-1.3,5.3-4.2c0,0,2.6-2.6,1.8-4.8C179,297,180.1,293.8,179,293
		z"/>
	<g>
		<path class="st0" d="M114.2,327.9c3-4.2,2.4-9.5-0.5-13.6c-0.4-0.5-1.3,0-0.9,0.5c2.7,3.8,3.3,8.6,0.5,12.6
			C112.9,328,113.8,328.5,114.2,327.9L114.2,327.9z"/>
	</g>
	<g>
		<path class="st0" d="M115.8,319.7c4-3.5,7.5-8.8,6.7-14.2c-0.1-0.6-1.1-0.4-1,0.3c0.8,5.1-2.8,10-6.4,13.3
			C114.6,319.4,115.3,320.1,115.8,319.7L115.8,319.7z"/>
	</g>
	<g>
		<path class="st0" d="M121.2,312.1c6.7-0.3,14.5-2.6,18.3-8.6c0.3-0.6-0.5-1.1-0.9-0.5c-3.5,5.6-11.1,7.7-17.4,8.1
			C120.5,311.1,120.5,312.1,121.2,312.1L121.2,312.1z"/>
	</g>
	<g>
		<path class="st0" d="M136,307.1c7.9,1,19,0.6,24.3-6.3c0.4-0.5-0.5-1-0.9-0.5c-5,6.6-15.9,6.7-23.4,5.8
			C135.4,306,135.4,307,136,307.1L136,307.1z"/>
	</g>
	<g>
		<path class="st0" d="M156.4,304.2c5.8,0.5,13-0.2,17.2-4.5c0.5-0.5-0.3-1.2-0.7-0.7c-4,4.2-11,4.7-16.5,4.2
			C155.8,303.2,155.8,304.2,156.4,304.2L156.4,304.2z"/>
	</g>
	<g>
		<path class="st0" d="M115.6,323.2c3.6-0.5,7.5,1.4,9.9,4.2c0.4,0.5,1.1-0.2,0.7-0.7c-2.7-3-6.8-5.1-10.9-4.4
			C114.7,322.3,114.9,323.3,115.6,323.2L115.6,323.2z"/>
	</g>
	<g>
		<path class="st0" d="M119.5,315.1c2.8,0.2,5.4,2,6.8,4.5c0.3,0.6,1.2,0.1,0.9-0.5c-1.5-2.8-4.4-4.8-7.6-5
			C118.8,314.1,118.9,315.1,119.5,315.1L119.5,315.1z"/>
	</g>
	<g>
		<path class="st0" d="M131.7,309.7c3.5-0.3,7.1,1.2,9,4.2c0.3,0.5,1.2,0,0.9-0.5c-2.1-3.3-6-5.1-9.9-4.7
			C131,308.7,131,309.7,131.7,309.7L131.7,309.7z"/>
	</g>
	<g>
		<path class="st0" d="M150.4,306.4c1.8,1,3.2,2.9,3.4,5c0.1,0.6,1.1,0.6,1,0c-0.3-2.4-1.7-4.7-3.9-5.9
			C150.4,305.2,149.9,306.1,150.4,306.4L150.4,306.4z"/>
	</g>
</g>
<g id="heart">
	<circle class="st1" cx="74.5" cy="200.8" r="56.1"/>
	<path class="st2" d="M62.6,167.2c-0.2,2.5-0.5,5.6-0.5,8.8c0.3,0.2,0.7,0.3,1,0.5c0.1,0,0.2-0.1,0.2-0.1c2-5.3,6.7-11.2,17.3-12.5
		c-2.4-2.3-4.5-2.2-4.6-2.2c-0.3,0-0.7-0.1-0.9-0.3c-0.2-0.2-0.4-0.5-0.4-0.9v-2.3l-6.6,0.3l-0.7,4.2c-0.1,0.4-0.3,0.7-0.6,0.8
		C65.2,164.5,63.8,165.8,62.6,167.2z"/>
	<path class="st2" d="M54.7,174.2c1.7,0,3.4,0.3,5,0.8c0.1-5.1,0.7-10,0.9-11.9l-4.6-2.6c-1.9,3-3.4,9.2-4.3,14
		C52.7,174.3,53.7,174.2,54.7,174.2z"/>
	<path class="st2" d="M93.7,171.7l0.3,1c0.1,0.4,0,0.8-0.2,1.1c-0.2,0.3-0.6,0.5-1,0.5c-2.5,0.1-9.3,1-10.8,4.4
		c-1.8,4.1,3.2,7,4.1,7.5c3.7,0.9,6.9,2.2,9.5,3.8c1-3.6,2.7-8.1,6.3-9.4l-0.8-2.2c-1.8,0.3-4.2,0.9-5.2,1.6c-0.4,0.3-1,0.3-1.4,0
		s-0.6-0.8-0.5-1.3c0.1-0.4,1.1-3.9,3.4-5.7l-0.9-2.1L93.7,171.7z"/>
	<path class="st2" d="M46.6,179.9c-3.7,3.7-2.9,13.7-1.9,19.8c0.4-1.7,0.9-3.3,1.5-4.9c3.5-10.2,9.9-14.9,14-17.1
		c-1.8-0.8-3.7-1.2-5.5-1.2C51.6,176.6,48.8,177.8,46.6,179.9z"/>
	<path class="st2" d="M100.9,198.7c-2.4-4.4-6.7-7.5-13-9.5c0.9,2.5,2,6.8,1.2,11.5c-0.1,0.8-0.4,7.3,3.4,10.1
		c2,1.5,4.6,1.2,6.7-0.9c0.5-0.5,1.3-0.5,1.7,0c0.5,0.5,0.5,1.3,0,1.7c-1.4,1.4-3,2.2-4.7,2.5c1.9,3.7,0.3,9,0.2,9.3
		c-0.2,0.5-0.6,0.9-1.2,0.9c-0.1,0-0.2,0-0.4-0.1c-0.6-0.2-1-0.9-0.8-1.5c0-0.1,2.2-7.2-1.7-9.1c-3.1-1.5-4.6-4.4-5.2-7.1
		c-0.3,0.7-0.7,1.4-1.1,2.2l0,0c-0.5,0.9-1,1.9-1.6,3c-5.1,9.4-12.7,23.4-8.9,32.5c2.7,1,5.3,1.4,7.6,1.4l0,0
		c6.4,0,11.1-3.7,13.8-11.4C101.8,220.7,105.8,207.8,100.9,198.7z"/>
	<path class="st2" d="M62.3,236.9c3.6,2.7,7,4.7,10.1,6.2c-2.4-9.8,4.4-22.6,9.3-31.7c-1.4,0.5-2.8,0.9-4.3,1.3
		c-0.6,0.1-1.1,0.3-1.7,0.4c-1.2,0.4-2.3,0.8-3.3,1.2c-0.4,0.2-0.8,0.4-1.1,0.6c-3.3,2.3-3,6.8-3,6.8c0,0.7-0.5,1.3-1.1,1.3h-0.1
		c-0.6,0-1.2-0.5-1.2-1.1c0-0.2-0.2-3.1,1.3-5.9c-3.5,1-6.6,1.7-9.6,1.7c-0.7,0-1.2-0.5-1.2-1.2s0.5-1.2,1.2-1.2
		c2.6,0,5.3-0.5,8.3-1.4c-5.3-0.2-6.5-1.8-6.9-2.4c-0.4-0.5-0.3-1.3,0.3-1.7c0.6-0.4,1.3-0.3,1.7,0.3c0.4,0.6,2.7,2.4,14.2,0.7
		c0.6-0.2,1.1-0.3,1.7-0.5c2.6-0.7,5.1-1.3,7-2.9c0.6-1.1,1.1-2.1,1.5-3c3.3-7.2,0.1-14.6-0.6-16.1c-2.8-1.6-7.1-5.5-4.9-10.5
		c1.9-4.3,8.3-5.5,11.4-5.8l-1.7-5.7c-1.4-0.1-2.8-0.2-4.2-0.2c-7.2,0-16.4,2-19.9,11.8c-0.1,0.4-0.5,0.7-0.9,0.8
		c-0.5,0.1-11.3,2.8-16.1,17C46,203.1,40,220.3,62.3,236.9z"/>
</g>
<g id="liver">
	<circle class="st1" cx="346.2" cy="196.7" r="56.1"/>
	<path class="st2" d="M330.7,218.1c1,1,2.1,1.4,3.1,1.1c0.9-0.3,1.7-1.3,2.1-2.9C334,217,332.2,217.6,330.7,218.1z"/>
	<path class="st2" d="M379.9,192.3c0.5-0.6,0.9-1.3,1.4-1.9c2.8-3.9,5.5-7.5,4.5-9.6c-1.3-2.5-7.8-3.7-19.4-3.7c-0.1,0-0.2,0-0.4,0
		c-3,4.3-4,9.5-4.2,13.1c0.6,4,0.1,8.1-1.6,12.6C364.3,202.2,374.3,200.1,379.9,192.3z"/>
	<path class="st2" d="M355.7,177.3c-0.2,0-0.4,0-0.6,0c2.3,2.6,4,5.1,5.2,7.7c0.7-3,1.7-5.7,3.1-8
		C361,177.1,358.5,177.2,355.7,177.3z"/>
	<path class="st2" d="M357.5,203.2c1.9-4.3,2.6-8.3,2.1-12.2c-0.1-0.2-0.1-0.4-0.1-0.6v-0.1c-0.8-4.5-3.2-8.7-7.4-13
		c-0.2,0-0.4,0-0.7,0c-2.9,0-5.8-0.1-8.7-0.2c-2.8-0.1-5.5-0.2-8.2-0.2c-8.3,0-16.4,0.8-20.3,7c-5.5,8.7-4.3,17.6-3.3,25.4
		c0.2,1.7,0.4,3.3,0.6,4.9c0.5,5.6,1.4,9.3,4,9.3c2.1,0,5.3-2,9.6-6c0.1-0.1,0.3-0.2,0.4-0.2C325.9,217.3,351.6,209.5,357.5,203.2z"
		/>
</g>
<g id="bone">
	<circle class="st1" cx="81.4" cy="78.1" r="56.1"/>
	<path id="Bone" class="st2" d="M66.3,102.8l19-19l19-19c2.6,2.6,6.7,2.6,9.3,0.1c2.5-2.5,2.5-6.7-0.1-9.3s-6.7-2.6-9.3-0.1
		c2.5-2.5,2.5-6.7-0.1-9.3c-2.6-2.6-6.7-2.6-9.3-0.1c-2.5,2.5-2.5,6.7,0.1,9.3l-19,19l-19,19c-2.6-2.6-6.7-2.6-9.3-0.1
		c-2.5,2.5-2.5,6.7,0.1,9.3s6.7,2.6,9.3,0.1c-2.5,2.5-2.5,6.7,0.1,9.3s6.7,2.6,9.3,0.1C68.9,109.5,68.9,105.4,66.3,102.8z"/>
</g>
<g id="lungs">
	<circle class="st1" cx="334.8" cy="73.8" r="56.1"/>
	<path class="st2" d="M306.9,79.2c-1.8-3.4-3.3-6.6-4.2-9.1c-0.4,2.6-0.6,5.4-0.5,8.3c0.1,3.7,0,7.5-0.1,11.2
		c-0.2,7.3-0.3,14.8,1.4,16.6c0.4,0.4,0.8,0.4,1.4,0.2c3.5-1.2,6.4-3.2,10-5.8c1.7-1.2,3.6-2.6,5.8-4
		C315.7,92.8,311.1,87,306.9,79.2z"/>
	<path class="st2" d="M307.1,72.4c-0.7-0.5-1.3-1.1-1.9-1.6c3,7,8.9,18.5,17.4,24.6c0.6-0.4,1.3-0.8,1.9-1.2c4.3-2.5,5.1-8,4.9-14.6
		C318.8,79.5,311.5,75.8,307.1,72.4z"/>
	<path class="st2" d="M308.5,70.8c5.6,4.3,12.8,6.6,20.9,6.7c-0.1-1.3-0.2-2.6-0.3-4c-0.1-0.9,0-2.9,0-5.6
		c0.2-8.5,0.7-28.4-3.8-30.3c-0.8-0.3-1.6-0.5-2.4-0.5c-4.2,0-7.5,5.2-10.4,9.7c-0.3,0.5-0.7,1.1-1,1.6c-3.1,4.9-6.3,10.6-8.1,17.5
		C304.7,67.4,306.3,69.2,308.5,70.8z"/>
	<path class="st2" d="M364.2,70.7c-4.8,4.3-12.5,8.8-24.3,9c-0.2,6.5,0.6,12,4.9,14.6c0.7,0.4,1.3,0.8,1.9,1.2
		C355.3,89.2,361.2,77.7,364.2,70.7z"/>
	<path class="st2" d="M367.3,78.5c0.1-2.9-0.1-5.7-0.5-8.3c-1,2.4-2.4,5.6-4.2,9.1c-4.2,7.8-8.8,13.6-13.9,17.4
		c2.2,1.4,4.1,2.8,5.8,4c3.6,2.6,6.5,4.6,10,5.8c0.2,0.1,0.5,0.1,0.7,0.1c0.3,0,0.5-0.1,0.8-0.3c1.8-1.8,1.6-9.3,1.4-16.6
		C367.2,85.9,367.1,82.1,367.3,78.5z"/>
	<path class="st2" d="M340,77.6c14.3-0.2,22.2-7,25.9-11.6c-1.8-6.9-4.9-12.6-8.1-17.5c-0.3-0.5-0.7-1-1-1.6
		c-2.9-4.6-6.1-9.7-10.4-9.7c-0.8,0-1.6,0.2-2.4,0.5c-4.5,1.9-4,21.8-3.8,30.3c0.1,2.7,0.1,4.7,0,5.6C340.2,74.9,340,76.2,340,77.6z
		"/>
</g>
<g id="kidneys">
	<circle class="st1" cx="212.3" cy="73.6" r="56.1"/>
	<path class="st2" d="M201.6,67.6c-1.2,1-2.5,1.8-3.6,2.3c1.1,0.5,2.3,1.1,3.5,2c2.8-1.2,5.5-2.2,7.1-2.7c-0.3-1-0.5-2-0.8-2.7
		C205.9,67.1,203.8,67.5,201.6,67.6z"/>
	<path class="st2" d="M199.6,94.5c-1.3,4-5.8,6.7-11.3,6.7l0,0c-7.8,0-14.6-5-18.4-13.1c-6.7-14.5,1-27.8,2.2-29.7
		c0.6-0.6,2.1-1.5,5.4-0.7c0.7,0.1,1.3-0.3,1.5-0.9s-0.3-1.3-0.9-1.5c-1.9-0.4-3.4-0.4-4.5-0.2c3.6-7.5,11.1-10.9,17.6-10.9
		c6.2,0,11,2.9,12.3,7.5c1.2,4.3,0.9,8-0.8,11c-2.2,3.8-6.3,5.3-7.4,5.7c-1.7-0.6-5.3-2.3-6.5-5.1c-0.3-0.6-1-0.9-1.6-0.7
		c-0.6,0.3-0.9,1-0.7,1.6c1.4,3.4,5.1,5.3,7.1,6.1c-0.6,1.9-0.1,3.8,0.5,5.1c0,0.1-1.5,4.7-6.2,6.8c-0.6,0.3-0.9,1-0.6,1.6
		c0.2,0.5,0.7,0.7,1.1,0.7c0.2,0,0.3,0,0.5-0.1c3.8-1.7,5.8-4.7,6.8-6.6C197.2,79.8,202.2,86.6,199.6,94.5z"/>
	<path class="st2" d="M199.4,73.3c-1.3-0.8-2.5-1.4-3.6-1.8c-0.3,1.9,1,3.8,1.2,4.1c0.3,0.3,1.2,1.4,2.3,3c2.6,2.6,4.2,5.9,4.9,8.6
		h3.8C207,81,204.1,76.3,199.4,73.3z"/>
	<path class="st2" d="M188.8,84.5c-0.2,0.1-0.3,0.1-0.5,0.1c-0.5,0-0.9-0.3-1.1-0.7c-0.3-0.6,0-1.3,0.6-1.6c4.7-2.1,6.2-6.7,6.2-6.8
		c-0.6-1.3-1.1-3.2-0.5-5.1c-2-0.8-5.7-2.7-7.1-6.1c-0.3-0.6,0-1.3,0.7-1.6c0.6-0.3,1.3,0,1.6,0.7c1.2,2.8,4.8,4.5,6.5,5.1
		c1.2-0.4,5.2-1.9,7.4-5.7c1.7-2.9,2-6.6,0.8-11c-1.3-4.6-6.1-7.5-12.3-7.5c-6.5,0-14.1,3.4-17.6,10.9c1.2-0.2,2.7-0.2,4.5,0.2
		c0.7,0.1,1.1,0.8,0.9,1.5s-0.8,1.1-1.5,0.9c-3.3-0.7-4.8,0.1-5.4,0.7c-1.1,1.8-8.9,15.2-2.2,29.7c3.7,8.1,10.6,13.1,18.4,13.1l0,0
		c5.5,0,10.1-2.8,11.3-6.7c2.5-7.9-2.5-14.7-4.1-16.6C194.6,79.9,192.6,82.8,188.8,84.5z"/>
	<path class="st2" d="M225.6,69.9c-1.1-0.5-2.3-1.2-3.6-2.3c-2.2-0.1-4.3-0.5-6.3-1.1c-0.2,0.7-0.5,1.7-0.8,2.7
		c1.5,0.5,4.3,1.4,7.1,2.7C223.3,71,224.5,70.4,225.6,69.9z"/>
	<path class="st2" d="M226.7,75.7c0.2-0.3,1.5-2.2,1.2-4.2c-4.2,1.5-10.6,5.4-12.2,15.8h3.8c0.7-2.6,2.3-6,4.8-8.5
		C225.4,77.1,226.4,76,226.7,75.7z"/>
	<path class="st2" d="M251.6,58.5c-0.6-0.6-2.1-1.5-5.4-0.7c-0.7,0.1-1.3-0.3-1.5-0.9c-0.1-0.7,0.3-1.3,0.9-1.5
		c1.9-0.4,3.4-0.4,4.5-0.2c-3.6-7.5-11.1-10.9-17.6-10.9c-6.2,0-11,2.9-12.3,7.5c-1.2,4.3-0.9,8,0.8,11c2.2,3.8,6.3,5.3,7.4,5.7
		c1.2-0.4,5.2-2,6.5-5.1c0.3-0.6,1-0.9,1.6-0.7c0.6,0.3,0.9,1,0.7,1.6c-1.4,3.4-5.1,5.3-7.1,6.1c0.6,1.9,0.1,3.8-0.5,5.1l0,0
		c0,0.1,1.5,4.7,6.2,6.8c0.6,0.3,0.9,1,0.6,1.6c-0.2,0.5-0.7,0.7-1.1,0.7c-0.2,0-0.3,0-0.5-0.1c-3.8-1.7-5.9-4.7-6.8-6.6
		c-1.6,1.9-6.6,8.6-4,16.5c1.3,4,5.8,6.6,11.3,6.6c7.8,0,14.6-4.8,18.4-12.9C260.4,73.5,252.7,60.3,251.6,58.5z"/>
</g>
<path class="st3" d="M210.4,83.6c-69.5,0-125.8,56.3-125.8,125.8s56.3,125.8,125.8,125.8s125.8-56.3,125.8-125.8
	S279.9,83.6,210.4,83.6z M210.4,328.8C144.5,328.8,91,275.4,91,209.4S144.4,90,210.4,90s119.4,53.4,119.4,119.4
	S276.3,328.8,210.4,328.8z"/>
<g>
	<path class="st2" d="M132.4,196.4c-2.3-30.1-27.4-53.9-58.1-53.9c-32.2,0-58.3,26.1-58.3,58.3s26.1,58.3,58.3,58.3
		c30.6,0,55.7-23.6,58.1-53.6V196.4L132.4,196.4z M74.3,248.9c-26.6,0-48.1-21.5-48.1-48.1s21.5-48.1,48.1-48.1s48.1,21.5,48.1,48.1
		S100.9,248.9,74.3,248.9z"/>
</g>
<g>
	<path class="st2" d="M287.5,200.6c2.3,30.1,27.4,53.9,58.1,53.9c32.2,0,58.3-26.1,58.3-58.3s-26.1-58.3-58.3-58.3
		c-30.6,0-55.7,23.6-58.1,53.6V200.6L287.5,200.6z M345.6,148c26.6,0,48.1,21.5,48.1,48.1s-21.5,48.1-48.1,48.1
		s-48.1-21.5-48.1-48.1C297.5,169.6,319,148,345.6,148z"/>
</g>
<g>
	<path class="st2" d="M125.9,116.8c19.7-22.9,18.7-57.5-3-79.2c-22.8-22.8-59.7-22.8-82.4,0c-22.8,22.8-22.8,59.7,0,82.4
		c21.7,21.7,56.1,22.7,79,3.2L125.9,116.8L125.9,116.8z M47.6,112.9c-18.8-18.8-18.8-49.3,0-68c18.8-18.8,49.3-18.8,68,0
		c18.8,18.8,18.8,49.3,0,68C96.9,131.7,66.4,131.7,47.6,112.9z"/>
</g>
<g>
	<path class="st2" d="M166.2,168.3c-19.7,22.9-18.7,57.5,3,79.2c22.8,22.8,59.7,22.8,82.4,0c22.8-22.8,22.8-59.7,0-82.4
		c-21.7-21.7-56.1-22.7-79-3.2L166.2,168.3L166.2,168.3z M244.5,172.2c18.8,18.8,18.8,49.3,0,68c-18.8,18.8-49.3,18.8-68,0
		c-18.8-18.8-18.8-49.3,0-68C195.2,153.4,225.7,153.4,244.5,172.2z"/>
</g>
<g>
	<path class="st2" d="M216.3,131.7c30.1-2.3,53.9-27.4,53.9-58.1c0-32.2-26.1-58.3-58.3-58.3s-58.3,26.1-58.3,58.3
		c0,30.6,23.6,55.7,53.6,58.1H216.3L216.3,131.7z M163.8,73.6c0-26.6,21.5-48.1,48.1-48.1S260,47,260,73.6s-21.5,48.1-48.1,48.1
		S163.8,100.2,163.8,73.6z"/>
</g>
<g>
	<path class="st2" d="M278.8,250.2c-30.1,2.3-53.9,27.4-53.9,58.1c0,32.2,26.1,58.3,58.3,58.3s58.3-26.1,58.3-58.3
		c0-30.6-23.6-55.7-53.6-58.1L278.8,250.2L278.8,250.2z M331.4,308.3c0,26.6-21.5,48.1-48.1,48.1s-48.1-21.5-48.1-48.1
		s21.5-48.1,48.1-48.1S331.4,281.8,331.4,308.3z"/>
</g>
<g>
	<path class="st2" d="M296.9,117.8c22.9,19.7,57.5,18.7,79.2-3c22.8-22.8,22.8-59.7,0-82.4c-22.8-22.8-59.7-22.8-82.4,0
		c-21.7,21.7-22.7,56.1-3.2,79L296.9,117.8L296.9,117.8z M300.8,39.6c18.8-18.8,49.3-18.8,68,0c18.8,18.8,18.8,49.3,0,68
		c-18.8,18.8-49.3,18.8-68,0C282,88.8,282,58.4,300.8,39.6z"/>
</g>
<g>
	<path class="st2" d="M178.5,268.3c-22.9-19.7-57.5-18.7-79.2,3c-22.8,22.8-22.8,59.7,0,82.4c22.8,22.8,59.7,22.8,82.4,0
		c21.7-21.7,22.7-56.1,3.2-79L178.5,268.3L178.5,268.3z M174.5,346.6c-18.8,18.8-49.3,18.8-68,0c-18.8-18.8-18.8-49.3,0-68
		c18.8-18.8,49.3-18.8,68,0C193.3,297.3,193.3,327.8,174.5,346.6z"/>
</g>
<g id="guy" class="st4">
	<path class="st5" d="M153.9,239.9c1.2-4.3,2.8-8.3,4.5-11.4c1.1-2.5,2.4-4.8,3.9-6.7c0,0,10.7-13.3,31.6-12
		c0.2,0.1,0.3,0.2,0.5,0.3l0.4-0.1c0.3-0.2,0.6-0.4,0.9-0.6c-11.9-4.5-25.2-15.5-27.7-44.4c-5.1-0.2-9.3-4.2-9.4-9.1
		c-0.1-5,4.1-9.2,9.4-9.4c0.1-0.6,0.1-1.2,0.2-1.8c-0.6-3.2-1.4-8.1-1.3-10.9c0.1-4.1,0.8-8.9,1.9-12.9c3-10.4,9.9-17.3,18.7-21.6
		c12.5-6.2,35.9-5.3,46.7-0.3c8.9,4.1,15.7,11.3,18.7,21.6c1.1,4,1.8,8.7,1.9,12.9s0,8.6-0.8,12.8c0,0.1,0,0.2,0,0.4
		c4.5,0.5,8.3,3.9,9,8.2c0.8,5.1-2.9,9.6-8.2,10.1c-0.4,0-0.7,0-1.1,0c-1.6,17.1-7.5,37.3-25.4,44.8c0.1,0.1,0.2,0.1,0.3,0.2
		l0.7,0.2c0,0,0.1,0,0.1-0.1c5.5-0.3,10.4,1.4,14.7,4.1l4.9,1.3l-0.3,2c7.3,6.3,11.9,15,13.3,18c0.3,0.6,0.6,1.3,0.8,1.9
		c0.3,0.8,0.6,1.7,0.9,2.6h2.8c1.7-5.8,16.2-5.6,15.9-1.4c0,0.4-0.1,0.9-0.1,1.4h42c2.6-9.8,4-20.1,4-30.7
		c0-65-52.7-117.7-117.7-117.7S92.9,144.3,92.9,209.3c0,10.6,1.4,20.9,4,30.7L153.9,239.9L153.9,239.9z"/>
	<path class="st6" d="M262,236.2c0.4,1.2,0.9,2.5,1.3,3.7h0.1c-0.3-0.9-0.6-1.7-0.9-2.6c-0.2-0.7-0.5-1.3-0.8-1.9
		c-1.4-3-6.1-11.7-13.3-18l0,0C257.1,225.2,262,236.2,262,236.2z"/>
	<path class="st7" d="M241.8,239.9h3.1h18.5c-0.4-1.2-0.9-2.6-1.4-3.9c0,0-6.5-14.9-18.2-21.9L241.8,239.9z"/>
	<path class="st7" d="M243.8,214.1c-4.2-2.7-9.1-4.4-14.7-4.1c0,0-0.1,0-0.1,0.1l-2,10.4l16.5,2L243.8,214.1z"/>
	<path class="st8" d="M226.5,210.3c-4.1,1.5-8.9,2.3-14.4,2.4l0,0H212c-0.2,0-0.4,0-0.6,0v-0.1c-3.4-0.3-8.8-0.8-14.6-2.8l0.4,30.1
		h29L226.5,210.3z"/>
	<path class="st7" d="M178.3,238.3c-0.1,0.5-0.2,1.1-0.3,1.6h0.6L178.3,238.3z"/>
	<path class="st7" d="M196.1,209.5c-0.2-0.1-0.3-0.1-0.5-0.2c-0.3,0.2-0.6,0.4-0.9,0.6L196.1,209.5z"/>
	<path class="st7" d="M244.6,239.9h0.3c-0.1-0.3-0.1-0.6-0.2-0.9L244.6,239.9z"/>
	<path class="st7" d="M227.9,209.8l0.4,0.1c-0.1-0.1-0.2-0.1-0.3-0.2C228,209.7,228,209.7,227.9,209.8z"/>
	<path class="st9" d="M253.8,159.3c-0.1,1.8-0.2,3.7-0.4,5.6c0.4,0,0.7,0,1.1,0c5.4-0.5,9.1-5,8.2-10.1c-0.7-4.4-4.5-7.7-9-8.2
		C254,150.9,254,155.2,253.8,159.3z"/>
	<path class="st9" d="M167.8,146.4c-5.3,0.2-9.5,4.3-9.4,9.4c0.1,4.9,4.3,8.9,9.4,9.1c-0.2-1.8-0.3-3.7-0.4-5.6
		C167.4,155.2,167.4,150.9,167.8,146.4z"/>
	<path class="st6" d="M212.1,212.7H212H212.1L212.1,212.7z"/>
	<path class="st6" d="M253.8,146.5c0-0.1,0-0.2,0-0.4c0,0.2-0.1,0.4-0.1,0.7c0,0-6.6-19.3-20.1-18.4c-8.1,0.5-13.8,5.5-22.2,5.5
		c-0.1,0-0.2,0-0.2,0c0,0.1,0,0.2,0,0.2c-9,0.5-14.9-4.6-23.4-5.5c-10.1-1.1-16.7,2.8-19.1,19c0,0-0.3-1.2-0.6-3
		c-0.1,0.6-0.1,1.2-0.2,1.8c-0.4,4.4-0.5,8.8-0.3,12.8c0.1,1.9,0.2,3.8,0.4,5.6c2.6,28.9,15.9,40,27.7,44.4c0.2,0.1,0.3,0.1,0.5,0.2
		s0.4,0.2,0.7,0.2c5.8,2,11.2,2.5,14.6,2.8v0.1c0.2,0,0.4,0,0.6,0h0.1c5.5,0,10.2-0.9,14.4-2.4c0.5-0.2,1-0.3,1.4-0.5
		c0,0,0.1,0,0.1-0.1c17.9-7.5,23.7-27.7,25.4-44.8c0.2-1.9,0.3-3.8,0.4-5.6C254,155.2,254,150.9,253.8,146.5z"/>
	<path class="st9" d="M216.5,171.1c0-2.9-2.1-5.2-4.8-5.2c-0.1,0-0.3,0-0.4,0c-2.4,0.2-4.4,2.5-4.4,5.2c0,2.7,1.9,5,4.4,5.2
		c0.1,0,0.3,0,0.4,0C214.4,176.4,216.5,174,216.5,171.1z"/>
	<path class="st10" d="M168.6,147.6c2.4-16.2,9-20.1,19.1-19c8.5,0.9,14.4,6,23.4,5.5c0-0.1,0-0.2,0-0.2c0.1,0,0.2,0,0.2,0
		c8.4,0,14-5,22.2-5.5c13.5-0.9,20.1,18.4,20.1,18.4c0-0.2,0.1-0.4,0.1-0.7c0.8-4.2,1-8.6,0.8-12.8c-0.1-4.1-0.8-8.9-1.9-12.9
		c-3-10.4-9.8-17.5-18.7-21.6c-10.8-5.1-34.3-5.9-46.7,0.3c-8.8,4.4-15.7,11.3-18.7,21.6c-1.1,4-1.8,8.7-1.9,12.9
		c-0.1,2.8,0.7,7.8,1.3,10.9C168.3,146.4,168.6,147.6,168.6,147.6z"/>
	<path class="st11" d="M211.4,199.5h0.1h0.1l0,0c9.1-0.5,12.3-8.4,12.7-12.8c0.2-1.7-0.8-3.2-2.1-3.4c-1.3-0.2-2.5,1-2.7,2.6
		c-0.1,0.8-1.1,7.1-8.1,7.5c-0.1,0-0.1,0-0.2,0c-6.9-0.5-7.9-6.7-8-7.5c-0.2-1.7-1.4-2.8-2.7-2.6c-1.3,0.2-2.2,1.7-2.1,3.4
		C199.1,191.1,202.4,198.9,211.4,199.5L211.4,199.5L211.4,199.5z"/>
	<circle class="st12" cx="191.3" cy="153.7" r="7.8"/>
	<circle class="st12" cx="231.4" cy="153.7" r="7.8"/>
	<path class="st13" d="M96.6,239.9c13.5,50.1,59.3,87,113.7,87s100.2-36.9,113.7-87H96.6z"/>
	<path class="st6" d="M267.5,250.3c0.9,1.8,2.3,3.3,4.1,3.7c5.8,1.1,8.4-4.8,9.3-7.8c0.2-0.8,0.4-1.6,0.5-2.4
		c0.2-1.3,0.3-2.6,0.5-3.9c0-0.5,0.1-0.9,0.1-1.4c0.3-4.2-14.2-4.5-15.9,1.4c-0.1,0.2-0.1,0.5-0.1,0.7
		C265.5,243.9,265.9,247.4,267.5,250.3z"/>
	<path class="st6" d="M195.9,281.1c-3.3-0.9-6.1-1.8-8.1-2.5C190.8,279.8,193.7,280.6,195.9,281.1z"/>
	<path class="st14" d="M288.8,343.5h-156c-6.6,0-12-5.4-12-12v-32.9c0-6.6,5.4-12,12-12h156c6.6,0,12,5.4,12,12v32.9
		C300.8,338.1,295.4,343.5,288.8,343.5z"/>
	<g>
		<path class="st13" d="M156.1,322.8v-27.3h6c1.4,0,2.6,0.1,3.6,0.4s1.9,0.7,2.7,1.2c0.8,0.5,1.4,1.3,1.8,2.2
			c0.4,0.9,0.6,2.1,0.6,3.4c0,0.6,0,1.1-0.1,1.5c0,0.4-0.1,1-0.3,1.5c-0.1,0.6-0.3,1.1-0.6,1.5c-0.3,0.4-0.6,0.9-1.1,1.3
			s-1,0.8-1.7,1.1c1.6,5.2,3.1,9.6,4.3,13.2h-5.7l-3.1-12.6h-0.9v12.6L156.1,322.8L156.1,322.8z M161.6,306.8h1.6
			c0.4,0,0.8-0.1,1.1-0.4s0.5-0.6,0.7-1.1c0.1-0.4,0.2-0.8,0.3-1.2c0.1-0.4,0.1-0.7,0.1-1c0-0.3,0-0.7-0.1-1c0-0.3-0.1-0.7-0.2-1.1
			c-0.1-0.4-0.3-0.8-0.6-1c-0.3-0.3-0.6-0.4-1-0.4h-1.8v7.2H161.6z"/>
		<path class="st13" d="M171.9,322.8v-27.3h11.4v3.8h-5.9v7.4h4.2v3.9h-4.2v8.4h5.9v3.8L171.9,322.8L171.9,322.8z"/>
		<path class="st13" d="M183.7,314.2v-9.6c0-6.4,2.7-9.7,8-9.7c1.1,0,2.1,0.1,3,0.4s1.6,0.7,2.2,1.2s1.1,1.2,1.5,1.9
			c0.4,0.8,0.7,1.6,0.8,2.5c0.2,0.9,0.3,1.9,0.3,3v1.6h-5.3v-1.9c0-0.5,0-0.9,0-1.2c0-0.4-0.1-0.8-0.2-1.2s-0.2-0.8-0.4-1.1
			c-0.2-0.3-0.4-0.5-0.7-0.7c-0.3-0.2-0.7-0.3-1.2-0.3c-1.7,0-2.5,1.3-2.5,4v11.8c0,2.7,0.8,4,2.5,4s2.5-1.4,2.5-4.2v-2.2h-3.1v-4
			h8.6v14h-3.8l-0.7-1.9c-0.5,0.7-1.1,1.3-2,1.8s-1.7,0.7-2.7,0.7s-1.9-0.2-2.7-0.5c-0.8-0.3-1.5-0.8-2-1.4c-0.5-0.6-1-1.3-1.3-2.1
			c-0.3-0.8-0.6-1.6-0.8-2.4S183.7,315.1,183.7,314.2z"/>
		<path class="st13" d="M201.5,322.8v-27.3h5.5v27.3H201.5z"/>
		<path class="st13" d="M208.2,315l5.6-1.1c0,0.6,0,1,0,1.5c0,0.4,0.1,0.9,0.2,1.4s0.2,0.9,0.3,1.2s0.4,0.6,0.6,0.8
			c0.2,0.2,0.6,0.3,0.9,0.3c1.1,0,1.6-0.7,1.6-2.1c0-1.9-1.1-3.8-3.2-5.7l-1.7-1.5c-0.5-0.5-1-0.8-1.3-1.1c-0.3-0.3-0.7-0.7-1.1-1.2
			s-0.8-1-1-1.5s-0.5-1.1-0.6-1.7c-0.1-0.6-0.3-1.4-0.3-2.2c0-2.2,0.7-4,2.1-5.2c1.4-1.3,3.3-1.9,5.6-1.9c1.9,0,3.6,0.7,4.9,2.1
			c1.4,1.4,2,3,2,5v0.2c0,0.1,0,0.3,0,0.5l-5.7,0.8c0-0.1,0-0.3,0-0.5c0-0.2,0-0.4,0-0.6c0-0.4,0-0.7-0.1-1c-0.1-0.3-0.1-0.7-0.3-1
			c-0.1-0.3-0.3-0.6-0.5-0.8s-0.5-0.3-0.9-0.3c-0.6,0-1.1,0.2-1.4,0.7s-0.5,1-0.5,1.7c0,0.6,0.1,1.1,0.3,1.6c0.2,0.5,0.4,1,0.8,1.4
			c0.4,0.4,0.7,0.8,1,1.1c0.3,0.3,0.7,0.6,1.2,1c0.5,0.4,0.9,0.7,1.1,0.9c0.8,0.7,1.4,1.3,2,1.9c0.5,0.6,1,1.3,1.5,2
			c0.5,0.8,0.8,1.6,1.1,2.5c0.2,0.9,0.4,1.8,0.4,2.8c0,1.9-0.7,3.5-2,4.7c-1.3,1.2-3,1.8-5,1.8c-1.3,0-2.4-0.2-3.4-0.7
			s-1.8-1.1-2.4-1.9s-1.1-1.7-1.4-2.7C208.4,317.1,208.2,316.1,208.2,315z"/>
		<path class="st13" d="M226.4,322.8v-23.2h-4v-4.1h13.4v4.1h-3.9v23.1L226.4,322.8L226.4,322.8z"/>
		<path class="st13" d="M236.5,322.8v-27.3h11.4v3.8H242v7.4h4.2v3.9H242v8.4h5.9v3.8L236.5,322.8L236.5,322.8z"/>
		<path class="st13" d="M248.6,322.8v-27.3h6c1.4,0,2.6,0.1,3.6,0.4s1.9,0.7,2.7,1.2c0.8,0.5,1.4,1.3,1.8,2.2
			c0.4,0.9,0.6,2.1,0.6,3.4c0,0.6,0,1.1-0.1,1.5c0,0.4-0.1,1-0.3,1.5s-0.3,1.1-0.6,1.5c-0.3,0.4-0.6,0.9-1.1,1.3s-1,0.8-1.7,1.1
			c1.6,5.2,3.1,9.6,4.3,13.2h-5.7l-3.1-12.6h-0.9v12.6L248.6,322.8L248.6,322.8z M254.1,306.8h1.6c0.4,0,0.8-0.1,1.1-0.4
			c0.3-0.3,0.5-0.6,0.7-1.1c0.1-0.4,0.2-0.8,0.3-1.2c0.1-0.4,0.1-0.7,0.1-1c0-0.3,0-0.7-0.1-1c0-0.3-0.1-0.7-0.2-1.1
			c-0.1-0.4-0.3-0.8-0.6-1c-0.3-0.3-0.6-0.4-1-0.4h-1.9V306.8z"/>
		<path class="st15" d="M161.4,336.2c-0.7,1-1.8,1.6-3.2,1.6c-1.3,0-2.3-0.4-3.1-1.3c-0.8-0.9-1.2-2-1.2-3.2s0.4-2.4,1.2-3.2
			c0.8-0.9,1.9-1.3,3.2-1.3c1.3,0,2.4,0.5,3.1,1.6V329h1.3v8.9h-1.3V336.2z M158.4,336.6c1,0,1.7-0.3,2.3-1c0.5-0.6,0.8-1.4,0.8-2.4
			s-0.3-1.7-0.8-2.4c-0.6-0.7-1.3-1-2.3-1c-0.9,0-1.7,0.3-2.3,1c-0.6,0.6-0.8,1.4-0.8,2.4s0.3,1.7,0.8,2.4
			C156.7,336.2,157.5,336.6,158.4,336.6z"/>
		<path class="st15" d="M165.3,337.6v-7.7h-1.8v-1.2h1.8v-3.1h1.3v3.2h2v1.2h-2v7.7L165.3,337.6L165.3,337.6z"/>
		<path class="st15" d="M173.9,330.2c0.7-1.1,1.8-1.6,3.2-1.6c1.3,0,2.3,0.4,3.1,1.3c0.8,0.9,1.2,2,1.2,3.2s-0.4,2.4-1.2,3.2
			c-0.8,0.9-1.9,1.3-3.2,1.3c-1.3,0-2.4-0.5-3.1-1.6v1.4h-1.3V325h1.3V330.2z M176.9,336.6c0.9,0,1.7-0.3,2.3-1
			c0.6-0.6,0.8-1.4,0.8-2.4s-0.3-1.7-0.8-2.4c-0.6-0.7-1.4-1-2.3-1c-1,0-1.7,0.3-2.3,1c-0.5,0.6-0.8,1.4-0.8,2.4s0.3,1.7,0.8,2.4
			C175.2,336.2,175.9,336.6,176.9,336.6z"/>
		<path class="st15" d="M186.3,336.6c1.2,0,2-0.5,2.6-1.5h1.5c-0.3,0.8-0.8,1.5-1.5,1.9s-1.5,0.7-2.6,0.7c-1.3,0-2.4-0.4-3.3-1.3
			c-0.8-0.9-1.2-1.9-1.2-3.2c0-1.3,0.4-2.4,1.2-3.2c0.8-0.9,1.9-1.3,3.2-1.3c1.3,0,2.4,0.4,3.2,1.3s1.2,1.9,1.2,3.2v0.5h-7.4
			c0.1,0.8,0.4,1.5,1,2C184.7,336.3,185.5,336.6,186.3,336.6z M186.2,329.8c-0.8,0-1.5,0.3-2.1,0.8c-0.5,0.5-0.8,1.1-1,1.9h6
			c-0.1-0.8-0.4-1.4-1-1.9C187.7,330.1,187,329.8,186.2,329.8z"/>
		<path class="st13" d="M198.5,336.2c-0.7,1-1.8,1.6-3.2,1.6c-1.3,0-2.3-0.4-3.1-1.3c-0.8-0.9-1.2-2-1.2-3.2s0.4-2.4,1.2-3.2
			c0.8-0.9,1.9-1.3,3.2-1.3c1.3,0,2.4,0.5,3.1,1.6V329h1.3v8.9h-1.3V336.2z M195.5,336.6c1,0,1.7-0.3,2.3-1c0.5-0.6,0.8-1.4,0.8-2.4
			s-0.3-1.7-0.8-2.4c-0.6-0.7-1.3-1-2.3-1c-0.9,0-1.7,0.3-2.3,1c-0.6,0.6-0.8,1.4-0.8,2.4s0.3,1.7,0.8,2.4
			C193.8,336.2,194.5,336.6,195.5,336.6z"/>
		<path class="st15" d="M208.3,336.2c-0.7,1-1.8,1.6-3.2,1.6c-1.3,0-2.3-0.4-3.1-1.3c-0.8-0.9-1.2-2-1.2-3.2s0.4-2.4,1.2-3.2
			c0.8-0.9,1.9-1.3,3.2-1.3c1.3,0,2.4,0.5,3.1,1.6v-5h1.3v12.2h-1.3V336.2z M205.3,336.6c1,0,1.7-0.3,2.3-1c0.5-0.6,0.8-1.4,0.8-2.4
			s-0.3-1.7-0.8-2.4c-0.6-0.7-1.3-1-2.3-1c-0.9,0-1.7,0.3-2.3,1c-0.6,0.6-0.8,1.4-0.8,2.4s0.3,1.7,0.8,2.4
			C203.6,336.2,204.4,336.6,205.3,336.6z"/>
		<path class="st15" d="M215.1,328.6c1.3,0,2.4,0.4,3.2,1.3c0.8,0.9,1.2,1.9,1.2,3.2s-0.4,2.4-1.2,3.2c-0.8,0.9-1.9,1.3-3.2,1.3
			s-2.4-0.4-3.2-1.3c-0.8-0.9-1.2-1.9-1.2-3.2s0.4-2.4,1.2-3.2C212.7,329.1,213.8,328.6,215.1,328.6z M215.1,336.6
			c1,0,1.7-0.3,2.3-1c0.5-0.6,0.8-1.4,0.8-2.4s-0.3-1.7-0.8-2.4c-0.6-0.7-1.3-1-2.3-1s-1.7,0.3-2.3,1c-0.5,0.6-0.8,1.4-0.8,2.4
			s0.3,1.7,0.8,2.4C213.4,336.2,214.2,336.6,215.1,336.6z"/>
		<path class="st15" d="M221.9,328.8v1.4c0.3-0.4,0.7-0.8,1.2-1.1s1-0.4,1.6-0.4s1.1,0.1,1.5,0.2c0.4,0.2,0.8,0.4,1.1,0.7
			c0.7,0.7,1.1,1.7,1.1,2.9v5.2h-1.3v-5.1c0-0.8-0.2-1.5-0.7-1.9c-0.5-0.5-1.1-0.7-1.8-0.7c-0.7,0-1.4,0.2-1.9,0.7s-0.8,1.2-0.8,1.9
			v5.1h-1.3v-8.9L221.9,328.8L221.9,328.8z"/>
		<path class="st15" d="M233.8,328.6c1.3,0,2.4,0.4,3.2,1.3c0.8,0.9,1.2,1.9,1.2,3.2s-0.4,2.4-1.2,3.2c-0.8,0.9-1.9,1.3-3.2,1.3
			s-2.4-0.4-3.2-1.3c-0.8-0.9-1.2-1.9-1.2-3.2s0.4-2.4,1.2-3.2C231.4,329.1,232.4,328.6,233.8,328.6z M233.8,336.6
			c1,0,1.7-0.3,2.3-1c0.5-0.6,0.8-1.4,0.8-2.4s-0.3-1.7-0.8-2.4c-0.6-0.7-1.3-1-2.3-1s-1.7,0.3-2.3,1c-0.5,0.6-0.8,1.4-0.8,2.4
			s0.3,1.7,0.8,2.4C232,336.2,232.8,336.6,233.8,336.6z"/>
		<path class="st15" d="M243.9,328.6v1.3h-0.2c-1,0-1.7,0.4-2.3,1.2c-0.6,0.7-0.9,1.6-0.9,2.6v3.9h-1.3v-8.9h1.3v2.2
			c0.3-0.9,0.9-1.6,1.8-2C242.8,328.7,243.3,328.6,243.9,328.6L243.9,328.6z"/>
		<path class="st15" d="M245.4,335.8v1.8h-1.7v-1.8H245.4z"/>
		<path class="st15" d="M250.8,336.6c0.6,0,1.1-0.2,1.5-0.5s0.8-0.7,1-1.2h1.4c-0.3,0.9-0.8,1.6-1.5,2.1c-0.8,0.5-1.7,0.8-2.7,0.8
			c-1.3,0-2.4-0.4-3.2-1.3c-0.8-0.9-1.2-1.9-1.2-3.2s0.4-2.4,1.2-3.2c0.8-0.9,1.9-1.3,3.2-1.3c1,0,1.9,0.3,2.7,0.8
			c0.7,0.5,1.2,1.2,1.5,2.1h-1.4c-0.2-0.5-0.5-0.9-1-1.2c-0.4-0.3-0.9-0.5-1.5-0.5s-1,0.1-1.4,0.3c-0.4,0.2-0.7,0.4-1,0.7
			c-0.6,0.6-0.9,1.4-0.9,2.4s0.3,1.7,0.9,2.4C249,336.2,249.8,336.6,250.8,336.6z"/>
		<path class="st15" d="M262.6,336.2c-0.7,1-1.8,1.6-3.2,1.6c-1.3,0-2.3-0.4-3.1-1.3c-0.8-0.9-1.2-2-1.2-3.2s0.4-2.4,1.2-3.2
			c0.8-0.9,1.9-1.3,3.2-1.3c1.3,0,2.4,0.5,3.1,1.6V329h1.3v8.9h-1.3V336.2z M259.6,336.6c1,0,1.7-0.3,2.3-1c0.5-0.6,0.8-1.4,0.8-2.4
			s-0.3-1.7-0.8-2.4c-0.6-0.7-1.3-1-2.3-1c-0.9,0-1.7,0.3-2.3,1c-0.6,0.6-0.8,1.4-0.8,2.4s0.3,1.7,0.8,2.4
			C257.9,336.2,258.7,336.6,259.6,336.6z"/>
	</g>
	<path class="st6" d="M191.6,295.7c0.1,0,0.1,0,0.2,0.1c3.7,1,8.6,2.5,13.9,3.6c1.7,0.4,3.4,0.7,5.2,0.9c0.8,0.1,1.6,0.2,2.4,0.2
		c3.1-0.1,9.6-0.9,10.1-6.8c0.2-1.9-0.9-3.6-2.4-5c-2.4-2.3-5.6-3.7-8.9-4.1c-4.8-0.6-9.5-1.5-14.1-2.7L191.6,295.7z"/>
	<path class="st7" d="M195.9,281.1c-2.2-0.5-5.1-1.4-8.1-2.5c-1.3-0.5-2.7-1-3.9-1.6c-5.2-2.3-9.1-7.5-12-14.1
		c-5.1-11.8,0.4-20,2.8-23h3.3c0.1-0.5,7.7-0.3,7.8-0.8l2.5-13.5l2.3-6.3c-0.2-0.1,3.4-9.5,3.2-9.6c-20.9-1.2-31.6,12-31.6,12
		c-1.5,2-2.8,4.2-3.9,6.7c-1.7,3.1-3.3,7.1-4.5,11.4c-3.1,11-3.9,24.4,0.5,32.3c5.8,10.6,18.2,18.5,37.2,23.6l0.1-0.1l6.4-14
		l0.1-0.2C197.5,281.5,196.7,281.3,195.9,281.1z"/>
	<path class="st16" d="M227.9,209.8c-0.5,0.2-1,0.4-1.4,0.5l-0.4,29.6h18.5l0.2-0.9l3.5-21.5l0,0l0.3-2l-4.9-1.3l-14.8-4l-0.7-0.2
		L227.9,209.8z"/>
	<path class="st16" d="M174.6,215.4l3.8,22.9l0.3,1.6h18.4l-0.4-30.1c-0.2-0.1-0.4-0.2-0.7-0.2l-1.4,0.4l-0.4,0.1L174.6,215.4z"/>
</g>
</svg>
